<?xml version="1.0" encoding="UTF-8"?>
<svg id="Livello_2" data-name="Livello 2" xmlns="http://www.w3.org/2000/svg" viewBox="0 0 78.69 62.6">
  <defs>
    <style>
      .cls-1 {
        fill: #d3e472;
        stroke: #d3e472;
        stroke-miterlimit: 8;
      }
    </style>
  </defs>
  <g id="Livello_1-2" data-name="Livello 1">
    <g>
      <path class="cls-1" d="M77.96,21.61c-.44-.68-1.34-.88-2.02-.44l-4.29,2.76c.2-1.46,.31-2.94,.31-4.42,0-.81-.65-1.46-1.46-1.46s-1.46,.65-1.46,1.46c0,1.05-.06,2.1-.17,3.14l-2.25-3.5c-.44-.68-1.34-.88-2.02-.44-.68,.44-.88,1.34-.44,2.02h0l3.95,6.14c-.62,2.4-1.53,4.71-2.73,6.87l-1.43-5.09c-.21-.78-1.01-1.25-1.79-1.04-.78,.21-1.25,1.01-1.04,1.79,0,.01,0,.03,.01,.04l2.14,7.59c-1.39,1.88-2.99,3.59-4.77,5.1l-.27-5.26c-.04-.81-.73-1.43-1.54-1.39s-1.43,.73-1.39,1.54l.37,7.22c-1.94,1.28-4.03,2.33-6.21,3.13l1.72-5.4c.23-.77-.21-1.59-.98-1.82-.75-.22-1.55,.19-1.8,.93l-2.31,7.28c-2.19,.51-4.43,.77-6.68,.77-.02,0-.04,0-.06,0s-.04,0-.06,0c-2.25,0-4.49-.26-6.68-.77l-2.31-7.28c-.24-.77-1.07-1.19-1.84-.95s-1.19,1.07-.95,1.84l1.72,5.4c-2.19-.79-4.27-1.84-6.21-3.13l.37-7.22c.05-.81-.56-1.5-1.36-1.56s-1.5,.56-1.56,1.36c0,.02,0,.03,0,.05l-.27,5.26c-1.78-1.51-3.39-3.22-4.77-5.1l2.14-7.59c.23-.77-.21-1.59-.98-1.82-.77-.23-1.59,.21-1.82,.98,0,.01,0,.03-.01,.04l-1.43,5.09c-1.19-2.17-2.11-4.48-2.73-6.87l3.95-6.14c.44-.68,.24-1.58-.44-2.02-.68-.44-1.58-.24-2.02,.44l-2.25,3.5c-.11-1.04-.17-2.09-.17-3.14,0-.81-.65-1.46-1.46-1.46s-1.46,.65-1.46,1.46c0,1.48,.11,2.96,.31,4.42l-4.29-2.76c-.68-.44-1.58-.24-2.02,.44-.44,.68-.24,1.58,.44,2.02h0l6.67,4.29c.61,2.26,1.45,4.44,2.53,6.51l-3.95-1.11c-.77-.23-1.59,.22-1.81,.99-.23,.77,.22,1.59,.99,1.81,0,0,.02,0,.03,0l6.95,1.96c1.36,1.96,2.94,3.76,4.69,5.37l-3.9-.2c-.81-.04-1.5,.58-1.54,1.39-.04,.81,.58,1.5,1.39,1.54l8.03,.42c1.63,1.09,3.35,2.02,5.14,2.8l-3.28,1.04c-.77,.24-1.19,1.07-.95,1.84,.24,.77,1.07,1.19,1.84,.95l7.02-2.23c1.64,.43,3.32,.73,5.01,.9l-7.71,7.71c-.57,.57-.57,1.5,0,2.07s1.5,.57,2.07,0l8.95-8.94,8.95,8.95c.57,.57,1.5,.57,2.07,0s.57-1.5,0-2.07l-7.71-7.71c1.69-.17,3.37-.47,5.01-.9l7.03,2.23c.77,.23,1.59-.2,1.82-.97,.23-.76-.19-1.56-.94-1.81l-3.29-1.05c1.8-.78,3.52-1.71,5.14-2.8l8.03-.42c.81-.04,1.43-.73,1.39-1.54-.04-.81-.73-1.43-1.54-1.39l-3.9,.2c1.76-1.62,3.33-3.42,4.69-5.37l6.95-1.96c.77-.23,1.22-1.04,.99-1.81-.22-.76-1.02-1.21-1.79-1l-3.95,1.11c1.08-2.07,1.93-4.26,2.53-6.51l6.67-4.29c.68-.44,.87-1.34,.44-2.02Z"/>
      <circle class="cls-1" cx="39.52" cy="18.04" r="17.54" transform="translate(-3.8 14.83) rotate(-20.3)"/>
      <path class="cls-1" d="M52.56,6.3s.01,.02,.02,.03c.05,.06,.08,.1,.08,.1,0,0-.03-.03-.1-.08-.06-.05-.16-.12-.29-.21-.26-.17-.64-.42-1.17-.59-.52-.17-1.19-.25-1.91-.07-2.04,.51-3.71,2.33-4.92,3.97-2.14,2.89-2.91,6.48-5.07,9.35-1.26,1.67-2.95,2.95-4.97,3.53s-4.15,.31-6.17-.33c-1.15-.39-2.22-.92-3.09-1.61-.87-.68-1.54-1.48-2-2.28-.49-.85-.72-1.65-.83-2.2"/>
      <path class="cls-1" d="M55.57,25.11c-.1,.23-.25,.57-.46,.96-.35,.64-.96,1.74-2.15,2.59-.75,.53-1.5,.81-2.08,1.02-1.01,.37-1.82,.52-2.49,.62-.88,.13-1.79,.21-2.71,.22-.93,.01-1.86-.04-2.79-.16-.46-.06-.92-.13-1.39-.22-.24-.04-.45-.09-.67-.13-.11-.02-.21-.04-.34-.07l-.3-.05c-.8-.16-1.59-.25-2.34-.23-.37,.02-.75,.01-1.1,.08-.18,.03-.35,.05-.53,.07-.17,.03-.33,.09-.5,.13-.16,.05-.33,.07-.48,.14-.15,.06-.3,.12-.45,.18-.07,.03-.15,.06-.22,.09-.07,.04-.14,.07-.21,.1-.14,.07-.27,.14-.41,.2-.25,.15-.5,.3-.72,.45-.21,.17-.43,.31-.61,.48-.18,.16-.36,.31-.5,.46-.15,.15-.28,.29-.39,.42-.23,.26-.39,.48-.5,.63-.05,.07-.08,.12-.1,.15-.02,.02-.03,.05-.04,.06"/>
    </g>
  </g>
</svg>