<?xml version="1.0" encoding="UTF-8"?>
<svg id="Livello_2" data-name="Livello 2" xmlns="http://www.w3.org/2000/svg" version="1.1" viewBox="0 0 78.7 62.6">
  <defs>
    <style>
      .cls-1 {
        fill: #013777;
        stroke-width: 0px;
      }
    </style>
  </defs>
  <path class="cls-1" d="M20.3,16.5h5.4v8.2h-3.2c-1.3,0-2.3-1-2.3-2.3v-5.9Z"/>
  <path class="cls-1" d="M42.3,38.7l1.1,4.7h-8.2l1.1-4.7c2,.5,4,.5,6,0Z"/>
  <path class="cls-1" d="M52.9,16.5h5.4v5.9c0,1.3-1,2.3-2.3,2.3h-3.2v-8.2Z"/>
  <path class="cls-1" d="M69.8,24.1c-3.6,2.8-6.1,5.9-7.2,9.3-1,2.8-.8,4.9-.6,7.3.2,2,.4,4.2-.1,7-.5,2.8-1.6,5.5-3.3,8.2,7.3-5.7,12-14.6,12-24.6s-.3-4.9-.8-7.2ZM39.3,0C24.9,0,12.8,9.7,9.2,23c4.7,3.3,7.8,7.1,9.3,11.4,1.1,3.3.9,5.9.7,8.3-.2,1.9-.3,3.9,0,6.3.6,3.1,2,6.2,4.2,9.2,4.7,2.7,10.1,4.3,15.9,4.3s9.1-1,13.1-2.9h0c3.9-4,6.2-8.2,7-12.4.4-2.4.3-4.4,0-6.3-.2-2.5-.4-5.1.7-8.4,1.4-4.1,4.4-7.8,8.9-11.1C65,9,53.2,0,39.3,0ZM62.3,22.3c0,3.4-2.8,6.2-6.2,6.2h-3.8c-.8,3.7-3.1,6.9-6.3,8.8l1.4,6.2c2.3,0,4.1,1.9,4.1,4.1v8.6c0,1.1-.9,2-2,2h-20.4c-1.1,0-2-.9-2-2v-8.6c0-2.3,1.8-4.1,4.1-4.1l1.4-6.2c-3.2-1.9-5.5-5.1-6.3-8.8h-3.8c-3.4,0-6.2-2.8-6.2-6.2v-7.8c0-1.1.9-2,2-2h7.4v-1c0-1.1.9-2,2-2h23.2c1.1,0,2,.9,2,2v1h7.4c1.1,0,2,.9,2,2v7.8ZM16.7,49.5c-.5-2.8-.3-5-.1-7,.2-2.4.4-4.5-.6-7.3-1.2-3.5-3.7-6.7-7.5-9.5-.3,1.8-.5,3.7-.5,5.6,0,9.2,3.9,17.4,10.2,23.2-.7-1.6-1.2-3.3-1.5-5Z"/>
</svg>