<?xml version="1.0" encoding="UTF-8"?>
<svg id="Livello_2" data-name="Livello 2" xmlns="http://www.w3.org/2000/svg" viewBox="0 0 80.13 70.55">
  <defs>
    <style>
      .cls-1 {
        fill: #71b852;
        stroke: #fff;
        stroke-miterlimit: 10;
      }
    </style>
  </defs>
  <g id="Livello_1-2" data-name="Livello 1">
    <g>
      <path class="cls-1" d="M48.83,33.78h13.69v5.08c-8.59,.82-14.89,8.44-14.08,17.03,.42,4.41,2.7,8.44,6.26,11.08,5.52,4.09,13.07,4.1,18.59,0,6.94-5.13,8.4-14.92,3.27-21.86-2.64-3.57-6.67-5.84-11.08-6.26v-6.56c0-.82-.66-1.48-1.48-1.48h-15.08m-18.72,0h-14.06c-.82,0-1.48,.66-1.48,1.48v6.56C6.06,39.68-.24,47.31,.57,55.9c.42,4.42,2.7,8.45,6.26,11.09,5.52,4.09,13.07,4.1,18.59,0,6.94-5.13,8.4-14.92,3.27-21.86-2.64-3.56-6.66-5.84-11.08-6.26v-5.08h12.95m-1.76,20.64c-.01,3.22-1.24,6.31-3.44,8.65-.88-2.18-2.51-3.98-4.6-5.08,2.78-2.55,2.96-6.88,.41-9.66s-6.88-2.96-9.66-.41c-2.78,2.55-2.96,6.88-.41,9.66,.13,.14,.27,.28,.41,.41-2.09,1.09-3.72,2.89-4.61,5.08-2.21-2.34-3.44-5.43-3.43-8.65,0-7,5.67-12.67,12.66-12.67,7,0,12.67,5.67,12.67,12.66h0Zm44.43,8.66c-.88-2.18-2.51-3.98-4.6-5.08,2.78-2.55,2.96-6.88,.41-9.66-2.55-2.78-6.88-2.96-9.66-.41s-2.96,6.88-.41,9.66c.13,.14,.27,.28,.41,.41-2.09,1.09-3.72,2.89-4.61,5.08-2.21-2.34-3.44-5.44-3.43-8.65-.02-7,5.64-12.68,12.64-12.7,7-.02,12.68,5.64,12.7,12.64,0,3.24-1.22,6.35-3.44,8.71h0Z"/>
      <path class="cls-1" d="M27.03,14.83h2.85c.58,2.79,2.32,5.21,4.78,6.65l-1.08,4.69c-1.71,.04-3.08,1.43-3.08,3.14v6.56c0,.82,.66,1.48,1.48,1.48h15.48c.82,0,1.48-.66,1.48-1.48v-6.56c0-1.71-1.37-3.1-3.09-3.14l-1.08-4.69c2.46-1.44,4.2-3.85,4.78-6.65h2.85c2.6,0,4.7-2.11,4.7-4.7V4.2c0-.82-.66-1.48-1.48-1.48h-5.62v-.74c0-.82-.66-1.48-1.48-1.48H30.9c-.82,0-1.48,.66-1.48,1.48v.74h-5.61c-.82,0-1.48,.66-1.48,1.48v5.93c0,2.6,2.11,4.7,4.7,4.7Zm14.95,7.72l.83,3.6h-6.19l.83-3.6c1.49,.35,3.04,.35,4.53,0ZM50,5.68h4.13v4.45c0,.96-.78,1.74-1.74,1.74h-2.39V5.68Zm-24.72,0h4.13v6.19h-2.39c-.96,0-1.74-.78-1.74-1.74V5.68Z"/>
    </g>
  </g>
</svg>