<?xml version="1.0" encoding="UTF-8"?>
<svg id="Layer_1" data-name="Layer 1" xmlns="http://www.w3.org/2000/svg" version="1.1" viewBox="0 0 512 512">
  <defs>
    <style>
      .cls-1 {
        fill: #dc513b;
        stroke-width: 0px;
      }
    </style>
  </defs>
  <path class="cls-1" d="M120.9,192.6h21.1v13.6h10v-13.6h21.1v13.6h10v-13.6h21.1v13.6h10v-13.6h21.1v13.6h10v-13.6h21.1v13.6h10v-13.6h21.1v13.6h10v-13.6h21.1v13.6h10v-13.6h21.1v13.6h10v-13.6h21.1v13.6h10v-76.3c0-2.8-2.2-5-5-5s-5,2.2-5,5v4.6H120.9v-4.6c0-2.8-2.2-5-5-5s-5,2.2-5,5v76.3h10v-13.6ZM370,144.5h21.1v14.1h-21.1v-14.1ZM370,168.5h21.1v14.1h-21.1v-14.1ZM338.9,144.5h21.1v14.1h-21.1v-14.1ZM338.9,168.5h21.1v14.1h-21.1v-14.1ZM307.7,144.5h21.1v14.1h-21.1v-14.1ZM307.7,168.5h21.1v14.1h-21.1v-14.1ZM276.6,144.5h21.1v14.1h-21.1v-14.1ZM276.6,168.5h21.1v14.1h-21.1v-14.1ZM245.4,144.5h21.1v14.1h-21.1v-14.1ZM245.4,168.5h21.1v14.1h-21.1v-14.1ZM214.3,144.5h21.1v14.1h-21.1v-14.1ZM214.3,168.5h21.1v14.1h-21.1v-14.1ZM183.1,144.5h21.1v14.1h-21.1v-14.1ZM183.1,168.5h21.1v14.1h-21.1v-14.1ZM152,144.5h21.1v14.1h-21.1v-14.1ZM152,168.5h21.1v14.1h-21.1v-14.1ZM120.9,144.5h21.1v14.1h-21.1v-14.1ZM120.9,168.5h21.1v14.1h-21.1v-14.1Z"/>
  <path class="cls-1" d="M142.7,326.2l-9.3,47h245.1l-9.3-47h-226.5Z"/>
  <path class="cls-1" d="M392.5,216.2h-34.7l31,157h44.2c4.1,0,7-4,5.8-7.9l-46.3-149.1Z"/>
  <path class="cls-1" d="M261,316.2h106.3l-19.7-100.1h-86.6v100.1Z"/>
  <path class="cls-1" d="M144.7,316.2h106.3v-100.1h-86.6l-19.7,100.1Z"/>
  <path class="cls-1" d="M119.5,216.2l-46.3,149.1c-1.2,3.9,1.7,7.9,5.8,7.9h44.2l31-157h-34.7Z"/>
</svg>