<?xml version="1.0" encoding="UTF-8"?>
<svg id="Livello_2" data-name="Livello 2" xmlns="http://www.w3.org/2000/svg" viewBox="0 0 66.5 66.51">
  <defs>
    <style>
      .cls-1 {
        fill: #dc513b;
        stroke: none;
        stroke-miterlimit: 0;
      }
    </style>
  </defs>
  <g id="Livello_1-2" data-name="Livello 1">
    <path class="cls-1" d="M64.25,28.99s0,0,0,0L37.52,2.27c-1.14-1.14-2.65-1.77-4.26-1.77s-3.13,.63-4.26,1.77L2.28,28.98s-.02,.02-.03,.03c-2.34,2.35-2.34,6.17,.01,8.52,1.07,1.07,2.49,1.69,4,1.76,.06,0,.12,0,.19,0h1.06v19.67c0,3.89,3.17,7.06,7.06,7.06h10.46c1.06,0,1.92-.86,1.92-1.92v-15.42c0-1.78,1.44-3.22,3.22-3.22h6.17c1.78,0,3.22,1.44,3.22,3.22v15.42c0,1.06,.86,1.92,1.92,1.92h10.46c3.89,0,7.06-3.17,7.06-7.06v-19.67h.99c1.61,0,3.12-.63,4.26-1.77,2.35-2.35,2.35-6.17,0-8.53Z"/>
  </g>
</svg>