<?xml version="1.0" encoding="UTF-8"?>
<svg id="Livello_2" data-name="Livello 2" xmlns="http://www.w3.org/2000/svg" version="1.1" viewBox="0 0 68.2 64">
  <defs>
    <style>
      .cls-1 {
        fill: #013777;
        stroke-width: 0px;
      }
    </style>
  </defs>
  <g id="_14_comment" data-name=" 14 comment">
    <path class="cls-1" d="M61.4,0H6.8C3.1,0,0,3.1,0,6.9v36.4c0,3.8,3.1,6.8,6.8,6.8h6.8v11.4c0,.9.5,1.7,1.3,2,.3.2.7.2,1,.2.5,0,1-.2,1.4-.5l16.4-13.2h27.6c3.8,0,6.8-3.1,6.8-6.8V6.9c0-3.8-3.1-6.8-6.8-6.8h0ZM34.1,31.9H15.9c-1.3,0-2.3-1-2.3-2.3s1-2.3,2.3-2.3h18.2c1.3,0,2.3,1,2.3,2.3s-1,2.3-2.3,2.3ZM52.3,22.8H15.9c-1.3,0-2.3-1-2.3-2.3s1-2.3,2.3-2.3h36.4c1.3,0,2.3,1,2.3,2.3s-1,2.3-2.3,2.3Z"/>
  </g>
</svg>