<?xml version="1.0" encoding="UTF-8"?>
<svg id="Livello_2" data-name="Livello 2" xmlns="http://www.w3.org/2000/svg" viewBox="0 0 68.25 68.31">
  <defs>
    <style>
      .cls-1 {
           fill: #130777;
        stroke: none;
        stroke-miterlimit: 10;
      }
    </style>
  </defs>
  <g id="Livello_1-2" data-name="Livello 1">
    <path class="cls-1" d="M62.14,.5H30.73c-3.1,0-5.61,2.51-5.61,5.61v26.92c0,1.24,.42,2.45,1.18,3.42-2.79,1.45-5.89,2.2-9.03,2.18h-7.85c-4.96,.03-8.95,4.08-8.91,9.04,.03,4.61,3.55,8.44,8.14,8.87l3.66,9.14c.51,1.28,1.75,2.12,3.12,2.11h2.97c1.86,0,3.37-1.51,3.37-3.36,0-.43-.08-.85-.24-1.25l-2.61-6.53c4.7,.38,9.11,2.44,12.42,5.81,.54,.55,1.27,.85,2.04,.85,.39,0,.78-.08,1.15-.23,1.11-.46,1.83-1.54,1.83-2.73v-7.24c3.04-.62,5-3.58,4.38-6.61-.45-2.21-2.17-3.93-4.38-4.38v-3.48h7.85v7.59c0,.99,.57,1.88,1.48,2.28,.32,.15,.67,.22,1.03,.22,.62,0,1.22-.23,1.67-.65l10.38-9.44h3.39c3.1,0,5.61-2.51,5.61-5.61V6.11c0-3.1-2.51-5.61-5.61-5.61ZM2.68,47.61c0-3.72,3.01-6.73,6.73-6.73h6.73v13.46h-6.73c-3.72,0-6.73-3.01-6.73-6.73Zm31.41,12.74c0,.29-.18,.56-.45,.66-.25,.11-.55,.06-.74-.14-3.85-3.91-9.03-6.23-14.51-6.5v-13.53c5.48-.27,10.67-2.58,14.52-6.5,.19-.2,.49-.26,.74-.14,.27,.11,.45,.37,.45,.66v25.48Zm4.48-12.74c0,1.42-.9,2.69-2.24,3.16v-6.32c1.34,.47,2.24,1.74,2.24,3.16Z"/>
  </g>
</svg>