<?xml version="1.0" encoding="UTF-8"?>
<svg id="Livello_2" data-name="Livello 2" xmlns="http://www.w3.org/2000/svg" version="1.1" viewBox="0 0 46.8 45.3">
  <defs>
    <style>
      .cls-1 {
        fill: #dc513b;
        stroke-width: 0px;
      }
    </style>
  </defs>
  <path class="cls-1" d="M34.7,11.2c-1.3-.5-2.9-1-4.7-1.3-5-.9-9.1,0-11.7.7-.1-.4-1.2-4.2,1.4-7.5C22,.1,25.5,0,26,0s3.8,0,6.2,2.6c.6.6.9,1.2,1.2,1.7,1.5,2.8,1.6,5.5,1.5,6.9h-.2Z"/>
  <path class="cls-1" d="M24.4,0s-8.7,1-7.3,10.8l.8-.2S15.9,2,24.4,0Z"/>
  <path class="cls-1" d="M34.7,11.2c.3.5.6,1,.9,1.5.3.4.5.8.8,1.2s.3.5.3.7c0,.7-1.3,0-1.5,0-.3-.2-.7-.4-1.1-.5-1.2-.4-2.6-.5-3.9-.4-3.9.3-6.3,1.2-6.3,1.2,0,0-1.4.4-2.2-.4s-2.3-2.7-2.3-2.7c0,0,8.1-2.8,15.4-.4h-.1Z"/>
  <path class="cls-1" d="M33.5,14.7v.9c0,.8,0,1.6-.2,2.4-.3,2.2-1.1,4.4-2.5,6.1s-1.2,1.3-2.1,1.7c-1.5.6-3,.4-4.4-.4s-1.6-1-2.3-1.7c0,0,1.1,2.2,3.9,3l2.1.3s-6.4,4.6-12.5.8c0,0,2.7-5.2,3-7.1s-.3-3.6-.3-3.6c-.2.2-.4.4-.7.4-1-.2-1.5-4-.9-4.3.1,0,.3,0,.4.2v-2l1.1-.2c1.3,3.1,2.8,4.1,3.8,4.4,2.4.7,4.3-1.5,8.5-1.3,1.3,0,2.4.4,3,.6v-.2Z"/>
  <path class="cls-1" d="M31.7,25.1c-.5.8-1,1.3-1.4,1.6-1.4,1.3-3.1,2.5-6.7,3,0,0-3,.5-6.5-.4-.5-.2-1.3-.4-1.7-1.1-.4-.6-.5-1.3-.3-1.9.3-1.1,1.4-1.7,1.4-1.7,0,0-6.4,2.1-11.3,8.5C1.4,38,.3,43,0,45.4h46.8c-.3-2.5-1.5-9.4-7.3-15-2.8-2.8-5.8-4.3-7.9-5.2h0Z"/>
</svg>