<?xml version="1.0" encoding="UTF-8"?>
<svg id="Livello_2" data-name="Livello 2" xmlns="http://www.w3.org/2000/svg" viewBox="0 0 46.83 73.26">
  <defs>
    <style>
      .cls-1 {
      fill: #130777;
        stroke: none;
        stroke-miterlimit: 10;
      }
    </style>
  </defs>
  <g id="Livello_1-2" data-name="Livello 1">
    <path class="cls-1" d="M3.45,25.92c-.07,.48-.34,2.64,1.08,4.27,.37,.42,.78,.72,1.14,.93-.05,2.19,.23,3.92,.48,5.04,.34,1.56,2.17,9.04,8.56,12.56,.67,.37,1.24,.61,1.58,.75v1.67s-1.82,.18-1.82,.18l-1.76,.17c-3.26,.31-6.31,1.76-8.61,4.09-1.1,1.12-1.98,2.43-2.61,3.86-.66,1.52-.99,3.16-.99,4.82v7.14c0,.75,.6,1.35,1.35,1.35H44.98c.75,0,1.35-.6,1.35-1.35v-7.15c0-1.66-.34-3.3-.99-4.82-.62-1.43-1.5-2.74-2.6-3.85-2.3-2.34-5.36-3.79-8.62-4.1,0,0-1.75-.18-1.76-.18l-1.82-.19v-1.66c.54-.22,1.07-.47,1.58-.75,7.17-3.88,9.04-11.95,9.16-12.49,.24-1.11,.51-2.88,.37-5.12,.47-.26,1.23-.79,1.65-1.7,.44-.95,.32-1.85,.24-2.42-.45-3.08-1.17-6.27-1.41-7.3,.16-.76,.33-1.85,.33-3.14,0-.84,0-4.43-2.01-7.79-2.5-4.17-7.28-6.94-14.04-8.02-.87-.14-1.74-.22-2.62-.24h-.43s-.43,0-.43,0c-.84,.02-1.68,.09-2.5,.22-6.8,1.05-11.6,3.8-14.13,7.97-1.59,2.63-1.94,5.49-2.02,7-.02,.42-.02,.85-.02,.85,0,1.12,.1,2.05,.21,2.73-.33,2.21-.67,4.42-1,6.64Zm24.38,25.62l-.03,.04-4.39,5.39-4.39-5.39-.03-.04v-1.14c2.9,.73,5.94,.73,8.84,0v1.14ZM7.18,28.38c-1.01-.51-1.55-1.64-1.32-2.75l1.09-5.1c.56-.09,1.13-.18,1.71-.25,1.6-.22,3.32-.41,5.11-.57,.6-.05,1.21-.1,1.82-.14,5.17-.35,10.36-.35,15.54,0,.62,.04,1.21,.09,1.82,.14,1.79,.16,3.51,.35,5.1,.57,.58,.08,1.14,.16,1.73,.25l.55,2.37h0s.62,2.66,.62,2.66c.25,1.09-.26,2.22-1.24,2.76-.03,.01-.05,.02-.08,.04-.49,.25-1.06,.33-1.6,.21l-2.01-.39c-8.29-1.62-16.82-1.62-25.11,0l-2.13,.42c-.54,.11-1.11,.03-1.6-.23ZM20.84,3.4c.7-.11,1.41-.17,2.12-.19h.38s.39,0,.39,0c.76,.02,1.51,.09,2.26,.21,6.28,1,13.77,4.1,13.77,13.13,0,.41-.02,.83-.05,1.24-.43-.07-.85-.13-1.29-.19-1.64-.23-3.4-.42-5.23-.59-.63-.06-1.25-.11-1.89-.15-5.29-.36-10.6-.36-15.9,0-.63,.04-1.26,.09-1.88,.15-1.83,.16-3.59,.36-5.23,.59-.44,.06-.86,.13-1.29,.19-.03-.42-.05-.83-.05-1.24,0-9.1,7.55-12.17,13.88-13.15Z"/>
  </g>
</svg>