<?xml version="1.0" encoding="UTF-8"?>
<svg id="Livello_2" data-name="Livello 2" xmlns="http://www.w3.org/2000/svg" viewBox="0 0 90.14 68.91">
  <defs>
    <style>
      .cls-1 {
        stroke-width: .76px;
      }

      .cls-1, .cls-2, .cls-3 {
        fill: #dc513b;
        stroke: #dc513b;
        stroke-miterlimit: 10;
      }

      .cls-2 {
        stroke-width: .44px;
      }

      .cls-3 {
        stroke-width: .69px;
      }
    </style>
  </defs>
  <g id="Livello_1-2" data-name="Livello 1">
    <g>
      <g>
        <path class="cls-3" d="M49.76,60.27l2.68-2.44,7.4,8.12c.2,.22,.19,.56-.04,.76l-1.88,1.71c-.22,.2-.56,.18-.76-.04l-7.4-8.12ZM5.95,3.76C9.51,.9,14.18-.12,19.11,.9c4.85,1,9.38,3.86,12.76,8.05,3.37,4.19,5.2,9.23,5.14,14.18,0,.75-.06,1.51-.16,2.26,0,.06,0,.12,0,.17,.58,6.42,1.88,14.76,4.75,18.99l-1.43,1.15c.11-.24,.09-.51-.05-.73-1.71-2.77-3.05-7.17-3.97-13.07-.04-.23-.17-.43-.37-.55-.37-.22-.85-.11-1.08,.26-1.76,2.9-4.48,5.09-7.68,6.18-.22,.07-.39,.24-.48,.46-.16,.4,.04,.86,.45,1.01,5.57,2.17,9.58,4.41,11.92,6.68,.19,.18,.45,.26,.71,.2l-1.43,1.15c-3.52-3.71-11.39-6.76-17.53-8.7-.06-.02-.11-.03-.17-.03-.75-.06-1.5-.17-2.24-.32-4.85-1-9.38-3.86-12.76-8.05C2.11,26,.29,20.96,.34,16c.06-5.03,2.05-9.38,5.61-12.25Z"/>
        <path class="cls-1" d="M30.13,10.35C23.88,2.6,13.67,.42,7.36,5.5s-6.37,15.53-.13,23.28c3,3.73,7.01,6.29,11.28,7.23,.58,.13,1.17,.22,1.76,.29,3.67,.4,7.07-.52,9.73-2.66,6.31-5.08,6.37-15.53,.13-23.28h0ZM13.46,6.39l-2.67,2.15-1.83-2.27c.97-.67,2.05-1.17,3.19-1.49l1.31,1.62Zm6.72,13.8l-2.15-2.67,2.67-2.15,2.15,2.67-2.67,2.15Zm3.65-.92l2.15,2.67-2.67,2.15-2.15-2.67,2.67-2.15Zm-4.87,1.91l-2.67,2.15-2.15-2.67,2.67-2.15,2.15,2.67Zm-5.79-1.74l-2.15-2.67,2.67-2.15,2.15,2.67-2.67,2.15Zm-1.39-9.68l2.67-2.15,2.15,2.67-2.67,2.15-2.15-2.67Zm5.79,1.74l2.15,2.67-2.67,2.15-2.15-2.67,2.67-2.15Zm1.22-.98l2.67-2.15,2.15,2.67-2.67,2.15-2.15-2.67Zm5.79,1.74l2.15,2.67-2.67,2.15-2.15-2.67,2.67-2.15Zm3.13,3.89l2.15,2.67-2.67,2.15-2.15-2.67,2.67-2.15Zm-.76,7.01l2.15,2.67-2.67,2.15-2.15-2.67,2.67-2.15Zm-1.74,5.79l-2.67,2.15-2.15-2.67,2.67-2.15,2.15,2.67Zm-5.79-1.74l-2.15-2.67,2.67-2.15,2.15,2.67-2.67,2.15Zm-1.22,.98l-2.67,2.15-2.15-2.67,2.67-2.15,2.15,2.67Zm-5.79-1.74l-2.15-2.67,2.67-2.15,2.15,2.67-2.67,2.15Zm-3.13-3.89l-2.15-2.67,2.67-2.15,2.15,2.67-2.67,2.15Zm.76-7.01l-2.15-2.67,2.67-2.15,2.15,2.67-2.67,2.15Zm3.85-11.13c.71-.09,1.42-.12,2.13-.09l-1.33,1.07-.8-.99h0Zm6.59,2.73l-2.67,2.15-2.15-2.67,2.53-2.03c.09,.02,.18,.03,.27,.05l2.01,2.5Zm1.58-1.27l-.36,.29-.55-.69c.31,.12,.61,.26,.91,.4Zm1.51,.8c1.02,.61,1.98,1.3,2.87,2.08l-1.6,1.29-2.15-2.67,.88-.71h0Zm5.34,4.66c.3,.38,.58,.76,.85,1.15l-1.81,1.45-2.15-2.67,1.77-1.43c.46,.47,.9,.97,1.33,1.49h0Zm1.71,2.47c.6,1.01,1.1,2.07,1.51,3.18l-1.04,.84-2.15-2.67,1.67-1.35h0Zm2.02,4.78c.14,.53,.26,1.06,.35,1.58l-.91-1.13,.56-.45h0Zm.36,4.1l-2.67,2.15-2.15-2.67,2.67-2.15,2.15,2.67Zm.12,1.91c-.11,.98-.33,1.95-.66,2.88l-1.15-1.43,1.81-1.45h0Zm-3.55,7.25l-2.15-2.67,2.67-2.15,1.66,2.06c-.46,.86-1.02,1.65-1.69,2.36l-.49,.39Zm-1.7,1.37c-.83,.5-1.73,.89-2.67,1.15l-1.66-2.06,2.67-2.15,2.15,2.67-.48,.39h0Zm-4.4,1.5c-.98,.12-1.97,.13-2.95,.02l1.8-1.45,1.15,1.43h0Zm-6.94-3.17l2.67-2.15,2.15,2.67-2.67,2.15-2.15-2.67Zm-.31,2.11c-.5-.2-.99-.42-1.47-.67l.56-.45,.91,1.13h0Zm-2.93-1.51c-.99-.63-1.92-1.35-2.78-2.15l1.68-1.35,2.15,2.67-1.04,.84h0Zm-4.83-4.35c-.42-.53-.81-1.07-1.17-1.61l1.77-1.42,2.15,2.67-1.81,1.45c-.32-.35-.63-.71-.94-1.08h0Zm-1.99-2.97c-.57-1.04-1.05-2.12-1.42-3.25l.88-.71,2.15,2.67-1.6,1.29h0Zm-1.89-4.89c-.08-.33-.14-.65-.19-.98l.55,.69-.36,.29h0Zm-.43-3.77c0-.09,0-.18,0-.28l2.53-2.03,2.15,2.67-2.67,2.15-2.01-2.5h0Zm.22-2.46c.12-.7,.3-1.39,.54-2.06l.8,.99-1.33,1.07h0Zm1.25-3.68c.55-1.04,1.28-1.99,2.14-2.8l1.83,2.28-2.67,2.15-1.3-1.62Z"/>
      </g>
      <g>
        <circle class="cls-2" cx="45.13" cy="52.73" r="7.71" transform="translate(-14.79 17.7) rotate(-19.13)"/>
        <path class="cls-2" d="M50.97,47.68s0,0,0,.01c.02,.03,.03,.04,.03,.04,0,0-.01-.01-.04-.03-.03-.02-.07-.06-.12-.1-.11-.08-.28-.19-.51-.27-.23-.08-.52-.12-.84-.05-.9,.2-1.65,.99-2.2,1.7-.97,1.25-1.34,2.82-2.31,4.06-.57,.72-1.32,1.27-2.22,1.51s-1.83,.1-2.71-.2c-.5-.18-.97-.42-1.34-.73-.38-.31-.67-.67-.86-1.02-.21-.38-.3-.73-.35-.97"/>
        <path class="cls-2" d="M52.13,55.99c-.04,.1-.11,.25-.21,.42-.16,.28-.44,.75-.97,1.12-.33,.23-.67,.34-.92,.43-.45,.15-.81,.21-1.1,.25-.39,.05-.79,.07-1.19,.07-.41,0-.82-.04-1.23-.1-.2-.03-.4-.06-.61-.11-.11-.02-.2-.04-.29-.06-.05-.01-.09-.02-.15-.03l-.13-.02c-.35-.08-.7-.12-1.03-.12-.16,0-.33,0-.48,.03-.08,0-.16,.02-.23,.03-.08,.01-.15,.04-.22,.05-.07,.02-.15,.03-.21,.06-.07,.02-.13,.05-.2,.07-.03,.01-.07,.02-.1,.04-.03,.01-.06,.03-.09,.04-.06,.03-.12,.06-.18,.08-.11,.06-.22,.13-.32,.19-.09,.07-.19,.13-.27,.2-.08,.07-.16,.13-.22,.2-.07,.06-.13,.13-.18,.18-.11,.11-.18,.21-.22,.27-.02,.03-.04,.05-.05,.06,0,.01-.01,.02-.02,.03"/>
      </g>
      <g>
        <path class="cls-3" d="M32.98,68.23c-.2,.22-.54,.24-.76,.04l-1.88-1.71c-.22-.2-.24-.54-.04-.76l7.4-8.12,2.68,2.44-7.4,8.12ZM89.79,15.84c.06,4.95-1.77,9.99-5.14,14.18-3.37,4.19-7.9,7.05-12.76,8.05-.74,.15-1.49,.26-2.24,.32-.06,0-.12,.02-.17,.03-6.14,1.94-14.01,4.99-17.53,8.7l-1.43-1.15c.25,.05,.52-.02,.71-.2,2.34-2.26,6.35-4.51,11.92-6.68,.4-.16,.6-.61,.45-1.01-.08-.22-.26-.38-.48-.46-3.21-1.1-5.92-3.29-7.68-6.18-.22-.37-.71-.49-1.08-.26-.2,.12-.33,.32-.37,.55-.93,5.9-2.27,10.3-3.97,13.07-.14,.22-.15,.5-.05,.73l-1.43-1.15c2.88-4.23,4.17-12.57,4.75-18.99,0-.06,0-.12,0-.17-.1-.75-.15-1.5-.16-2.26-.06-4.95,1.77-9.99,5.14-14.18,3.37-4.19,7.9-7.05,12.76-8.05,4.93-1.02,9.61,0,13.16,2.86,3.56,2.86,5.55,7.21,5.61,12.25Z"/>
        <path class="cls-1" d="M60.01,10.18c-6.24,7.76-6.19,18.2,.13,23.28,2.66,2.14,6.06,3.06,9.73,2.66,.59-.06,1.18-.16,1.76-.29,4.27-.93,8.28-3.5,11.28-7.23,6.24-7.76,6.19-18.2-.13-23.28-6.31-5.08-16.53-2.91-22.77,4.85h0Zm17.97-5.59c1.14,.32,2.22,.82,3.19,1.49l-1.83,2.27-2.67-2.15,1.31-1.62Zm-10.69,13.28l2.15-2.67,2.67,2.15-2.15,2.67-2.67-2.15Zm1.68,3.37l-2.15,2.67-2.67-2.15,2.15-2.67,2.67,2.15Zm4.35-2.9l2.67,2.15-2.15,2.67-2.67-2.15,2.15-2.67Zm.98-1.22l2.15-2.67,2.67,2.15-2.15,2.67-2.67-2.15Zm1.91-4.87l-2.67-2.15,2.15-2.67,2.67,2.15-2.15,2.67Zm-.98,1.22l-2.15,2.67-2.67-2.15,2.15-2.67,2.67,2.15Zm-6.03-.46l-2.67-2.15,2.15-2.67,2.67,2.15-2.15,2.67Zm-.98,1.22l-2.15,2.67-2.67-2.15,2.15-2.67,2.67,2.15Zm-3.13,3.89l-2.15,2.67-2.67-2.15,2.15-2.67,2.67,2.15Zm.76,7.01l-2.15,2.67-2.67-2.15,2.15-2.67,2.67,2.15Zm1.22,.98l2.67,2.15-2.15,2.67-2.67-2.15,2.15-2.67Zm.98-1.22l2.15-2.67,2.67,2.15-2.15,2.67-2.67-2.15Zm6.03,.46l2.67,2.15-2.15,2.67-2.67-2.15,2.15-2.67Zm.98-1.22l2.15-2.67,2.67,2.15-2.15,2.67-2.67-2.15Zm3.13-3.89l2.15-2.67,2.67,2.15-2.15,2.67-2.67-2.15Zm-.76-7.01l2.15-2.67,2.67,2.15-2.15,2.67-2.67-2.15Zm-1.18-8.99l-.8,.99-1.33-1.07c.71-.03,1.42,0,2.13,.09h0Zm-4.58,.23c.09-.02,.18-.03,.27-.05l2.53,2.03-2.15,2.67-2.67-2.15,2.01-2.5Zm-2.68,.83l-.55,.69-.36-.29c.3-.14,.61-.28,.91-.4Zm-2.42,1.2l.88,.71-2.15,2.67-1.6-1.29c.89-.78,1.85-1.48,2.87-2.08h0Zm-5.34,4.66c.42-.53,.86-1.02,1.33-1.49l1.77,1.43-2.15,2.67-1.81-1.45c.27-.39,.55-.77,.85-1.15h0Zm-1.71,2.47l1.67,1.35-2.15,2.67-1.04-.84c.41-1.1,.91-2.16,1.51-3.18h0Zm-2.02,4.78l.56,.45-.91,1.13c.09-.53,.21-1.05,.35-1.58h0Zm1.78,1.44l2.67,2.15-2.15,2.67-2.67-2.15,2.15-2.67Zm-2.27,4.58l1.81,1.45-1.15,1.43c-.33-.93-.55-1.9-.66-2.88h0Zm3.06,6.86c-.67-.71-1.24-1.5-1.69-2.36l1.66-2.06,2.67,2.15-2.15,2.67-.49-.39Zm2.19,1.76l-.48-.39,2.15-2.67,2.67,2.15-1.66,2.06c-.94-.26-1.83-.65-2.67-1.15h0Zm4.4,1.5l1.15-1.43,1.8,1.45c-.98,.1-1.97,.1-2.95-.02h0Zm4.8-.5l-2.67-2.15,2.15-2.67,2.67,2.15-2.15,2.67Zm2.46-.56l.91-1.13,.56,.45c-.48,.25-.97,.47-1.47,.67h0Zm2.93-1.51l-1.04-.84,2.15-2.67,1.68,1.35c-.86,.8-1.79,1.52-2.78,2.15h0Zm4.83-4.35c-.3,.37-.61,.73-.94,1.08l-1.81-1.45,2.15-2.67,1.77,1.42c-.36,.55-.75,1.09-1.17,1.61h0Zm1.99-2.97l-1.6-1.29,2.15-2.67,.88,.71c-.37,1.12-.85,2.21-1.42,3.25h0Zm1.89-4.89l-.36-.29,.55-.69c-.06,.33-.12,.65-.19,.98h0Zm.43-3.77l-2.01,2.5-2.67-2.15,2.15-2.67,2.53,2.03c0,.09,0,.18,0,.28h0Zm-.22-2.46l-1.33-1.07,.8-.99c.24,.67,.42,1.36,.54,2.06h0Zm-2.55-2.06l-2.67-2.15,1.83-2.28c.86,.81,1.58,1.76,2.14,2.8l-1.3,1.62Z"/>
      </g>
    </g>
  </g>
</svg>