<?xml version="1.0" encoding="UTF-8"?>
<svg id="Livello_2" data-name="Livello 2" xmlns="http://www.w3.org/2000/svg" viewBox="0 0 384.28 384.28">
  <defs>
    <style>
      .cls-1 {
        fill: #f0de46;
        stroke-width: 0px;
      }
    </style>
  </defs>
  <g id="Livello_1-2" data-name="Livello 1">
    <g>
      <path class="cls-1" d="M56.2,320.65c1.06,3.66,2.28,7.25,3.64,10.81C22.98,296.49,0,246.98,0,192.14c0-11.43.99-22.61,2.89-33.47,13.16,9.87,31.49,25.8,40.87,43.66,6.16,11.75,9.38,26.37,9.55,43.46.05,5.91-.62,11.87-1.31,18.18-.72,6.43-1.46,13.06-1.41,19.89.07,17.86,4.13,31.66,5.47,36.19l.15.59Z"/>
      <path class="cls-1" d="M192.59,204.46c2.72,2.55,5.64,4.8,8.68,6.78-3.41.62-6.83,1.36-10.22,2.15-6.11,1.43-12.17,3.12-18.16,5.05,2.05-4.77,3.83-9.67,5.37-14.62,1.29-4.16,2.4-8.39,3.31-12.64,3.04,4.87,6.73,9.35,11.01,13.28Z"/>
      <path class="cls-1" d="M311.48,90.02c13.26,19.64,13.46,46.48.47,65.26-2.77,4.01-6.56,7.72-9.87,10.96-.94.92-1.88,1.81-2.82,2.72-9.5,9.08-19.72,17.91-30.3,26.17-5.52,4.3-10.64,8.06-17.39,10.27-6.31,2.05-13.06,2.89-19.57,2.4l-1.19-.1c-10.93-1.06-21-5.59-29.09-13.09-9.7-8.98-15.63-21.3-16.75-34.73-.92-11.06,1.78-22.66,7.59-32.7,7.07-12.27,17.46-22.36,26.72-30.63,1.29-1.16,2.6-2.35,3.88-3.51,8.36-7.62,16.28-14.82,26.3-18.28,20.83-7.2,48.81-4.25,62.02,15.26Z"/>
      <path class="cls-1" d="M192.14,0C104,0,29.71,59.35,7.1,140.26c14.3,10.04,39.38,30.03,51.97,54.03,7.47,14.2,11.35,31.49,11.55,51.33.05,6.95-.69,13.73-1.41,20.26-.69,6.21-1.36,12.07-1.31,17.91.07,15.41,3.49,27.01,4.75,31.39l.2.64c4.35,15.02,11.7,29.12,21.87,41.96,28.55,16.85,61.87,26.49,97.42,26.49,30.35,0,59.05-7.03,84.56-19.57,13.06-12.91,22.88-28.65,28.47-45.59,3.61-10.93,5.49-22.49,5.54-34.31.05-6.26-.69-12.57-1.48-19.25-.82-7.03-1.66-14.27-1.58-21.74.22-21.3,4.58-39.8,12.99-55.04,13.09-23.7,38.17-43.74,54.6-55.09C350.49,56.16,277.88,0,192.14,0ZM74.93,160.1c-16.03-23.23-15.88-56.3.42-80.42,17.76-26.32,52.64-29.04,77.53-20.43,12.62,4.35,21.94,12.84,30.97,21.05l3.76,3.39c1.14,1.04,2.3,2.08,3.44,3.12,2.72,2.52,2.89,6.75.37,9.5-2.5,2.72-6.75,2.89-9.47.37-1.09-.99-2.18-1.98-3.29-2.94-1.29-1.16-2.57-2.33-3.86-3.51-8.39-7.62-16.3-14.82-26.32-18.28-20.83-7.2-48.81-4.26-61.99,15.26-13.26,19.64-13.46,46.48-.49,65.26,2.8,4.03,6.56,7.72,9.9,10.96.92.92,1.86,1.81,2.8,2.72,9.52,9.08,19.72,17.89,30.33,26.17,2.05,1.61,4.06,3.14,6.11,4.53,3.04,2.1,3.83,6.28,1.76,9.35-1.31,1.9-3.41,2.92-5.57,2.92-1.29,0-2.62-.37-3.78-1.16-2.28-1.56-4.5-3.24-6.8-5.05-10.93-8.56-21.47-17.66-31.32-27.06-.99-.92-1.95-1.86-2.92-2.8-3.59-3.49-8.02-7.84-11.55-12.94ZM282.86,299.63c-3.07,3.04-7.08,4.58-11.08,4.58s-8.02-1.53-11.08-4.58l-41.63-41.63c-6.11-6.11-6.11-16.05,0-22.17,6.11-6.14,16.05-6.14,22.17,0l41.63,41.61c6.13,6.14,6.13,16.06,0,22.19ZM323.01,162.92c-3.51,5.07-7.77,9.25-11.55,12.94-.96.94-1.93,1.88-2.92,2.82-9.82,9.4-20.36,18.5-31.32,27.04-6.28,4.92-12.67,9.57-21.5,12.44-6.48,2.1-13.38,3.19-20.16,3.19-1.53,0-3.04-.05-4.55-.15l-.99-.07c-12.07.77-24.12,2.57-35.89,5.34-6.43,1.51-12.81,3.31-19.1,5.42-.3,3.51-1.81,6.95-4.53,9.67l-58.04,58.06c-3.07,3.04-7.07,4.58-11.08,4.58s-8.04-1.53-11.11-4.58c-6.11-6.13-6.11-16.05,0-22.19l58.06-58.04c3.17-3.17,7.32-4.7,11.48-4.58,2.18-4.9,4.06-9.9,5.64-14.99,3.91-12.69,5.99-25.93,6.11-39.31v-.15c-1.01-13.73,2.2-27.53,9.35-39.93,8.04-13.9,19.37-24.96,29.41-33.92,1.26-1.14,2.52-2.3,3.78-3.44,9.03-8.19,18.33-16.67,30.95-21.03,24.91-8.61,59.77-5.86,77.55,20.43,16.28,24.12,16.45,57.19.4,80.42Z"/>
      <path class="cls-1" d="M384.28,192.14c0,59.05-26.64,111.89-68.55,147.12,2.28-4.8,4.23-9.7,5.89-14.69,4.18-12.69,6.33-26.02,6.41-39.66.05-7.32-.79-14.45-1.58-21.35-.79-6.78-1.56-13.19-1.48-19.57.17-18.41,3.83-34.16,10.84-46.83,10.14-18.36,29.46-34.83,44.18-45.57,2.82,13.06,4.3,26.64,4.3,40.55Z"/>
    </g>
  </g>
</svg>