<?xml version="1.0" encoding="UTF-8"?>
<svg id="Livello_2" data-name="Livello 2" xmlns="http://www.w3.org/2000/svg" xmlns:xlink="http://www.w3.org/1999/xlink" viewBox="0 0 69.7 42.84">
  <defs>
    <style>
      .cls-1 {
        fill: #e8e107;
      }

      .cls-2 {
        fill: #fff;
      }

      .cls-3 {
        fill: #71b852;
      }

      .cls-4 {
        fill: url(#Sfumatura_senza_nome_101);
      }

      .cls-5 {
        opacity: .13;
      }

      .cls-5, .cls-6, .cls-7 {
        fill: #dada00;
      }

      .cls-6 {
        opacity: .14;
      }

      .cls-7 {
        opacity: .42;
      }
    </style>
    <linearGradient id="Sfumatura_senza_nome_101" data-name="Sfumatura senza nome 101" x1="25.26" y1="14.48" x2="50.04" y2="14.48" gradientUnits="userSpaceOnUse">
      <stop offset="0" stop-color="#fff"/>
      <stop offset=".14" stop-color="#fff" stop-opacity=".97"/>
      <stop offset=".35" stop-color="#fff" stop-opacity=".89"/>
      <stop offset=".61" stop-color="#fff" stop-opacity=".75"/>
      <stop offset=".9" stop-color="#fff" stop-opacity=".57"/>
      <stop offset="1" stop-color="#fff" stop-opacity=".5"/>
    </linearGradient>
  </defs>
  <g id="Livello_1-2" data-name="Livello 1">
    <g>
      <path class="cls-3" d="M.42,28.07l-.14-7.67c1.35,1.75,2.8,2.6,4.33,2.58,.58-.01,1.05-.17,1.41-.48,.36-.31,.53-.69,.53-1.14-.01-.65-.42-1.28-1.23-1.89l-1.11-.82c-.74-.52-1.37-1.05-1.9-1.57-.53-.52-.95-1.06-1.29-1.62-.33-.56-.58-1.14-.74-1.73-.16-.6-.25-1.23-.26-1.89-.02-1.14,.22-2.33,.74-3.59,.26-.58,.56-1.12,.9-1.61,.35-.49,.75-.92,1.2-1.3,1.25-1.08,2.77-1.63,4.56-1.67,1.6-.03,3.22,.36,4.85,1.16l.14,7.46c-.56-.82-1.2-1.47-1.9-1.93-.71-.47-1.4-.69-2.07-.68-.52,0-.94,.17-1.26,.47-.34,.29-.5,.64-.5,1.04,.01,.65,.48,1.29,1.4,1.92l1.08,.75c1.44,.98,2.47,1.98,3.1,3.03,.64,1.04,.98,2.27,1,3.68,.04,2.4-.66,4.4-2.13,5.99-1.46,1.59-3.34,2.4-5.62,2.44-1.58,.03-3.27-.28-5.09-.93Z"/>
      <path class="cls-3" d="M17.29,29h-4.89V10.9h4.74c2.36,0,4.11,.48,5.25,1.44,1.34,1.13,2.02,2.71,2.02,4.73,0,2.2-.72,3.83-2.15,4.91-.98,.73-2.38,1.09-4.21,1.09h-.76v5.93Zm0-10h.22c.59,.01,1.07-.17,1.42-.53,.35-.36,.53-.86,.53-1.5s-.17-1.13-.52-1.52c-.34-.4-.78-.6-1.31-.6h-.34v4.15Z"/>
      <path class="cls-3" d="M28.94,29h-4.66c0-4.48-.01-8.97-.02-13.45,1.54,.03,3.09,.06,4.63,.1,.02,4.45,.03,8.9,.05,13.36Z"/>
      <path class="cls-3" d="M56.77,10.91c-.65,.58-1.3,1.16-1.94,1.75,.4,1.11,1.09,3.56,.39,6.46-.21,.87-1.01,4.15-3.95,5.98-.6,.37-2.24,1.39-4.24,1.06-.34-.06-1.13-.2-1.93-.77-1.24-.9-1.62-2.22-1.83-2.99-.08-.28-.37-1.37-.19-2.8,.14-1.11,.5-1.97,.77-2.51-.76-.64-1.51-1.29-2.27-1.93-.6,1.24-1.31,3.22-1.17,5.6,.09,1.56,.52,2.85,.73,3.49,.4,1.16,.87,2.09,1.26,2.75,.27,1.12,.27,2.05,.23,2.67-.07,1.06-.31,1.85-.56,2.61-.28,.84-.52,1.31-.92,2.26-.55,1.32-1.1,2.64-1.65,3.95-.48,1.15-.96,2.3-1.45,3.45l1.61,.91,1.48-3.7,1.46,.49s.91-2.24,2.38-6.01c1.47-3.77,5.03-5.29,5.03-5.29,11.95-5.43,6.78-17.42,6.78-17.42Zm-12.89,20.64c.15-.48,.3-1.18,.29-2.02-.02-1.16-.34-2.07-.58-2.6,.22,.29,.74,.89,1.64,1.25,1.04,.42,1.97,.27,2.31,.19-.54,.2-1.38,.6-2.22,1.35-.73,.66-1.18,1.35-1.45,1.83Z"/>
      <path class="cls-3" d="M62.58,29.03h-4.89V10.92h4.74c2.36,0,4.11,.48,5.25,1.44,1.34,1.13,2.02,2.71,2.02,4.73,0,2.2-.72,3.83-2.15,4.91-.98,.73-2.38,1.09-4.21,1.09h-.76v5.93Zm0-10h.22c.59,.01,1.07-.17,1.42-.53,.35-.36,.53-.86,.53-1.5s-.17-1.13-.52-1.52c-.34-.4-.78-.6-1.31-.6h-.34v4.15Z"/>
      <g>
        <circle class="cls-1" cx="48.27" cy="20.94" r="2.89"/>
        <path class="cls-2" d="M50.42,19c-1.2-.6-1.61,1.4-2.17,2.16-.72,1.01-2.63,.68-2.84-.57,.31,1.14,2.05,1.43,2.72,.47,.55-.71,1.13-2.82,2.3-2.05h0Z"/>
        <path class="cls-2" d="M50.97,21.96c-.21,1.06-1.51,1.23-2.4,1.04-.41-.1-.86-.14-1.2,.05-.19,.1-.38,.24-.5,.42,.1-.2,.27-.38,.46-.5,.53-.33,1.16-.09,1.73-.08,.77,.09,1.63-.14,1.91-.94h0Z"/>
      </g>
      <g>
        <path class="cls-3" d="M3.19,42.37H1.13v-5.79H0v-1.82H4.37v1.82h-1.18v5.79Z"/>
        <path class="cls-3" d="M4.9,42.37v-7.61h3.82v1.79h-1.77v1.11h1.58v1.72h-1.58v1.16h1.77v1.83h-3.82Z"/>
        <path class="cls-3" d="M9.6,42.37v-7.61h1.96l1.03,2.67c.06,.16,.12,.34,.19,.54s.15,.44,.23,.7l.21,.67c-.08-.66-.13-1.23-.17-1.7-.04-.47-.06-.86-.06-1.18v-1.71h1.96v7.61h-1.96l-1.04-2.8c-.11-.3-.21-.58-.29-.84s-.16-.51-.23-.75c.04,.54,.07,1,.09,1.4s.03,.75,.03,1.04v1.94h-1.96Z"/>
        <path class="cls-3" d="M16.03,42.37v-7.61h1.96l1.03,2.67c.06,.16,.12,.34,.19,.54s.15,.44,.23,.7l.21,.67c-.08-.66-.13-1.23-.17-1.7-.04-.47-.06-.86-.06-1.18v-1.71h1.96v7.61h-1.96l-1.04-2.8c-.11-.3-.21-.58-.29-.84s-.16-.51-.23-.75c.04,.54,.07,1,.09,1.4s.03,.75,.03,1.04v1.94h-1.96Z"/>
        <path class="cls-3" d="M24.51,42.37h-2.06v-7.61h2.06v7.61Z"/>
        <path class="cls-3" d="M25.41,42.18v-2.39c.4,.55,.84,.83,1.31,.83,.18,0,.32-.05,.43-.14,.11-.09,.17-.21,.17-.35,0-.2-.12-.4-.37-.6l-.33-.26c-.22-.17-.41-.33-.57-.5-.16-.17-.29-.34-.38-.51s-.17-.36-.22-.54c-.05-.19-.07-.38-.07-.59,0-.36,.08-.73,.25-1.11,.08-.18,.18-.35,.29-.5,.11-.15,.23-.28,.38-.4,.39-.33,.86-.49,1.41-.49,.49,0,.98,.13,1.48,.39v2.33c-.17-.26-.36-.46-.57-.61-.21-.15-.42-.22-.63-.22-.16,0-.29,.05-.39,.14-.11,.09-.16,.2-.16,.32,0,.2,.14,.41,.42,.61l.33,.24c.43,.31,.74,.63,.93,.96,.19,.33,.29,.71,.29,1.15,0,.75-.23,1.37-.69,1.85s-1.04,.73-1.74,.73c-.48,0-1-.11-1.55-.32Z"/>
      </g>
      <ellipse class="cls-7" cx="48.6" cy="13.94" rx="1.83" ry="1.84" transform="translate(-1.72 9) rotate(-10.39)"/>
      <ellipse class="cls-5" cx="48.56" cy="11.37" rx="1.44" ry="1.44" transform="translate(-1.25 8.95) rotate(-10.39)"/>
      <ellipse class="cls-6" cx="48.47" cy="9.13" rx="1.24" ry="1.25" transform="translate(-.85 8.89) rotate(-10.39)"/>
      <path class="cls-4" d="M48.52,18.19c-.08-3.36-.23-6.73-.67-10.05-.22-1.65-.5-3.31-1.02-4.84-.26-.74-.62-1.52-1.08-1.87-.23-.16-.39-.2-.64-.13-.25,.07-.55,.27-.82,.51-1.11,1-1.97,2.47-2.75,3.89-.77,1.45-1.45,2.97-2.05,4.51-1.22,3.09-2.09,6.27-2.59,9.53-.26,1.63-.44,3.27-.54,4.92l-.13,2.51-.03,.35-.02,.21-.03,.15-.02,.09s-.05,.16-.08,.24l-.06,.12s-.28,.42-.58,.52c-.35,.11-.5,.2-1.06-.04-.57-.35-.62-.79-.59-.69-.03-.09-.07-.27-.07-.29v-.11s-.02-.25-.02-.25v-.35s.03-1.26,.03-1.26c.02-1.65-.02-3.29-.17-4.92-.13-1.63-.43-3.22-.68-4.83-.23-1.62-.54-3.24-.96-4.81-.21-.78-.46-1.56-.76-2.29-.28-.7-.69-1.47-1.06-1.77l-.14-.1s-.07-.01-.18,.06c-.21,.14-.44,.45-.63,.77-.39,.67-.7,1.44-.98,2.22-.56,1.56-1,3.19-1.39,4.83l-.27-.05c.19-1.68,.41-3.36,.78-5.04,.19-.84,.41-1.67,.77-2.52,.2-.42,.4-.85,.83-1.26,.21-.2,.53-.41,.95-.46,.41-.04,.78,.1,1.05,.25,.53,.33,.85,.72,1.14,1.1,.29,.38,.52,.77,.74,1.17,.44,.79,.79,1.59,1.12,2.4,.65,1.62,1.17,3.27,1.62,4.95,.77,3.41,.83,6.93,.69,10.36l-.07,1.26v.28s-.01,.08-.01,.07v-.03s-.03-.15-.06-.21c.02,.11-.01-.32-.58-.66-.56-.22-.69-.14-1.03-.04-.29,.09-.55,.49-.55,.49l-.05,.09s-.05,.15-.06,.16h0s0,.03,0,.01v-.1s.04-.28,.04-.28l.22-2.53c.17-1.71,.41-3.41,.73-5.1,.65-3.38,1.72-6.7,3.1-9.82,.69-1.57,1.45-3.11,2.32-4.6,.89-1.48,1.8-2.96,3.25-4.18,.38-.29,.8-.57,1.37-.71,.56-.17,1.31,.05,1.71,.43,.82,.77,1.07,1.65,1.34,2.49,.48,1.69,.66,3.39,.8,5.08,.26,3.39,.23,6.76,.13,10.14h-.27Z"/>
      <ellipse class="cls-7" cx="48.63" cy="17.33" rx="2.2" ry="2.21" transform="translate(-2.33 9.06) rotate(-10.39)"/>
    </g>
  </g>
</svg>