<?xml version="1.0" encoding="UTF-8"?>
<svg id="Livello_2" data-name="Livello 2" xmlns="http://www.w3.org/2000/svg" xmlns:xlink="http://www.w3.org/1999/xlink" viewBox="0 0 55.33 36.22">
  <defs>
    <style>
      .cls-1 {
        font-family: Futura-CondensedExtraBold, Futura;
        font-size: 8.02px;
        font-weight: 700;
      }

      .cls-1, .cls-2 {
        fill: #71b852;
      }

      .cls-3 {
        fill: #e8e107;
      }

      .cls-4 {
        fill: #fff;
      }

      .cls-5 {
        opacity: .13;
      }

      .cls-5, .cls-6, .cls-7 {
        fill: #dada00;
      }

      .cls-6 {
        opacity: .14;
      }

      .cls-7 {
        opacity: .42;
      }

      .cls-8 {
        fill: url(#Sfumatura_senza_nome_95);
      }
    </style>
    <linearGradient id="Sfumatura_senza_nome_95" data-name="Sfumatura senza nome 95" x1="20.03" y1="11.51" x2="39.74" y2="11.51" gradientUnits="userSpaceOnUse">
      <stop offset="0" stop-color="#fff"/>
      <stop offset=".14" stop-color="#fff" stop-opacity=".97"/>
      <stop offset=".35" stop-color="#fff" stop-opacity=".89"/>
      <stop offset=".61" stop-color="#fff" stop-opacity=".75"/>
      <stop offset=".9" stop-color="#fff" stop-opacity=".57"/>
      <stop offset="1" stop-color="#fff" stop-opacity=".5"/>
    </linearGradient>
  </defs>
  <g id="Livello_1-2" data-name="Livello 1">
    <g>
      <path class="cls-2" d="M.34,22.28l-.11-6.09c1.07,1.39,2.22,2.07,3.44,2.05,.46,0,.83-.13,1.12-.38,.29-.24,.42-.55,.42-.91,0-.52-.33-1.02-.97-1.5l-.88-.65c-.59-.42-1.09-.83-1.51-1.25-.42-.41-.76-.84-1.02-1.29-.26-.44-.46-.9-.59-1.38-.13-.47-.2-.98-.21-1.5-.02-.9,.18-1.85,.59-2.85,.2-.46,.44-.89,.72-1.28,.27-.39,.59-.73,.95-1.03,.99-.86,2.2-1.3,3.62-1.32,1.27-.02,2.55,.28,3.85,.92l.11,5.92c-.45-.65-.95-1.16-1.51-1.54-.56-.37-1.11-.55-1.65-.54-.41,0-.74,.13-1,.37-.27,.23-.4,.51-.39,.82,0,.52,.38,1.03,1.11,1.52l.85,.6c1.14,.77,1.96,1.57,2.46,2.4,.51,.83,.77,1.8,.8,2.92,.04,1.91-.53,3.49-1.69,4.75-1.16,1.26-2.65,1.91-4.46,1.94-1.25,.02-2.6-.22-4.04-.74Z"/>
      <path class="cls-2" d="M13.73,23.02h-3.88V8.64h3.76c1.87,0,3.26,.38,4.17,1.15,1.07,.9,1.6,2.15,1.6,3.75,0,1.74-.57,3.04-1.7,3.9-.78,.58-1.89,.87-3.34,.87h-.61v4.71Zm0-7.94h.18c.47,0,.85-.14,1.13-.42,.28-.29,.42-.68,.42-1.19s-.14-.9-.41-1.21c-.27-.32-.62-.47-1.04-.47h-.27v3.3Z"/>
      <path class="cls-2" d="M22.97,23.02h-3.7c0-3.56-.01-7.12-.02-10.68,1.22,.03,2.45,.05,3.67,.08,.01,3.53,.03,7.07,.04,10.6Z"/>
      <path class="cls-2" d="M45.07,8.66c-.51,.46-1.03,.92-1.54,1.39,.32,.88,.87,2.82,.31,5.13-.17,.69-.8,3.3-3.14,4.75-.48,.3-1.78,1.1-3.37,.84-.27-.04-.9-.16-1.53-.61-.99-.71-1.28-1.77-1.45-2.37-.06-.23-.29-1.09-.15-2.22,.11-.88,.39-1.57,.61-1.99-.6-.51-1.2-1.02-1.8-1.53-.48,.99-1.04,2.55-.93,4.44,.07,1.24,.41,2.26,.58,2.77,.31,.92,.69,1.66,1,2.19,.21,.89,.22,1.63,.19,2.12-.06,.84-.25,1.47-.44,2.07-.22,.67-.41,1.04-.73,1.79-.44,1.04-.87,2.09-1.31,3.14-.38,.91-.77,1.82-1.15,2.74l1.28,.72,1.17-2.94,1.16,.39s.72-1.77,1.89-4.77c1.16-2.99,3.99-4.2,3.99-4.2,9.48-4.31,5.38-13.83,5.38-13.83Zm-10.23,16.38c.12-.38,.24-.94,.23-1.61-.01-.92-.27-1.64-.46-2.07,.17,.23,.59,.71,1.3,1,.83,.34,1.56,.21,1.84,.15-.43,.16-1.1,.47-1.76,1.07-.58,.52-.94,1.07-1.15,1.45Z"/>
      <path class="cls-2" d="M49.68,23.04h-3.88V8.66h3.76c1.87,0,3.26,.38,4.17,1.15,1.07,.9,1.6,2.15,1.6,3.75,0,1.74-.57,3.04-1.7,3.9-.78,.58-1.89,.87-3.34,.87h-.61v4.71Zm0-7.94h.18c.47,0,.85-.14,1.13-.42,.28-.29,.42-.68,.42-1.19s-.14-.9-.41-1.21c-.27-.32-.62-.47-1.04-.47h-.27v3.3Z"/>
      <g>
        <circle class="cls-3" cx="38.32" cy="16.61" r="2.3"/>
        <path class="cls-4" d="M40.02,15.08c-.96-.47-1.27,1.1-1.72,1.71-.53,.71-1.68,.58-2.14-.13-.06-.1-.08-.22-.12-.32,.05,.1,.08,.22,.15,.31,.48,.61,1.53,.75,2.01,.06,.43-.57,.9-2.23,1.83-1.63h0Z"/>
        <path class="cls-4" d="M40.46,17.43c-.16,.84-1.2,.98-1.91,.83-.32-.08-.68-.11-.95,.04-.15,.08-.3,.19-.4,.34,.08-.16,.22-.3,.37-.4,.3-.18,.68-.15,1-.09,.71,.11,1.61,.07,1.89-.71h0Z"/>
      </g>
      <text class="cls-1" transform="translate(0 33.63)"><tspan x="0" y="0">TENNIS</tspan></text>
      <ellipse class="cls-7" cx="38.58" cy="11.06" rx="1.45" ry="1.46" transform="translate(-1.36 7.14) rotate(-10.39)"/>
      <ellipse class="cls-5" cx="38.55" cy="9.02" rx="1.14" ry="1.15" transform="translate(-1 7.1) rotate(-10.39)"/>
      <circle class="cls-6" cx="38.48" cy="7.24" r=".99" transform="translate(-.68 7.06) rotate(-10.39)"/>
      <path class="cls-8" d="M38.52,14.44c-.06-2.67-.19-5.34-.53-7.98-.18-1.31-.4-2.63-.81-3.84-.2-.59-.49-1.2-.85-1.48-.18-.15-.31-.12-.5-.09-.2,.07-.43,.21-.64,.4-.88,.8-1.57,1.95-2.18,3.09-.61,1.15-1.15,2.36-1.63,3.58-.96,2.45-1.66,4.97-2.05,7.56-.21,1.29-.34,2.59-.43,3.9l-.1,1.99-.02,.28-.02,.17-.02,.12-.02,.07s-.04,.13-.07,.19l-.05,.1s-.22,.33-.46,.41c-.29,.09-.4,.17-.85,0-.46-.25-.53-.66-.51-.57-.03-.07-.06-.22-.06-.23v-.09s-.02-.2-.02-.2v-.28s.02-1,.02-1c.06-2.62-.21-5.2-.67-7.73-.18-1.28-.42-2.57-.76-3.82-.17-.62-.37-1.23-.6-1.81-.22-.56-.55-1.18-.83-1.39-.16-.09-.05-.14-.24-.04-.16,.11-.34,.36-.5,.61-.31,.53-.55,1.14-.78,1.76-.44,1.24-.79,2.53-1.11,3.83l-.22-.04c.15-1.33,.32-2.67,.61-4,.15-.67,.33-1.33,.61-2,.16-.33,.32-.68,.66-1.01,.17-.16,.43-.33,.76-.37,.31-.01,.63,.07,.83,.2,.44,.26,.68,.57,.92,.87,.22,.3,.42,.62,.59,.93,.34,.63,.64,1.26,.89,1.91,.52,1.29,.93,2.6,1.29,3.93,.61,2.71,.66,5.51,.55,8.23l-.05,1v.22s0,.06-.01,.05v-.02s-.02-.12-.05-.17c.03,.1-.04-.3-.49-.54-.45-.16-.54-.1-.83-.01-.23,.07-.45,.41-.43,.39l-.04,.07s-.04,.12-.05,.13h0s0,.03,0,.01v-.08s.03-.22,.03-.22l.17-2.01c.13-1.36,.32-2.71,.58-4.05,.52-2.68,1.37-5.32,2.46-7.8,.55-1.25,1.15-2.47,1.84-3.65,.71-1.17,1.43-2.35,2.58-3.32,.3-.23,.65-.45,1.09-.57,.22-.04,.5-.04,.73,0,.25,.07,.47,.19,.63,.34,.65,.61,.85,1.31,1.06,1.98,.38,1.35,.52,2.69,.63,4.04,.2,2.69,.18,5.37,.1,8.05h-.22Z"/>
      <ellipse class="cls-7" cx="38.6" cy="13.75" rx="1.75" ry="1.75" transform="translate(-1.85 7.19) rotate(-10.39)"/>
    </g>
  </g>
</svg>